# xmcd
#
# Track frame offsets:
#	150
#	19442
#	35662
#	48740
#	65502
#	85242
#	104792
#	125672
#	146275
#	162312
#	177062
#	192137
#	209710
#	225355
#	242127
#
# Disc length: 3447 seconds
#
# Revision: 3
# Processed by: cddbd v1.5.2PL0 Copyright (c) Steve Scherf et al.
# Submitted via: EasyCDDAExtractor 10.0.5.1
#
DISCID=dc0d750f
DTITLE=迪士尼最新情歌 - All For Love  Vol.2
DYEAR=1998
DGENRE=Big Band
TTITLE0=True to your heart
TTITLE1=Reflection  
TTITLE2=Kiss the girl
TTITLE3=As Long As There's Christmas
TTITLE4=Hakuna Matata
TTITLE5=Someday 
TTITLE6=A Dream Is A Wish Your Hear Makes
TTITLE7=Zip-A-Dee-Doo-Dah
TTITLE8=The Lion Sleeps Tonight
TTITLE9=I Won't Say 
TTITLE10=Part Of Your World
TTITLE11=A Whole New World
TTITLE12=Friends Around The World
TTITLE13=Kube 
TTITLE14=Remember The Maglc
EXTD=
EXTT0=
EXTT1=
EXTT2=
EXTT3=
EXTT4=
EXTT5=
EXTT6=
EXTT7=
EXTT8=
EXTT9=
EXTT10=
EXTT11=
EXTT12=
EXTT13=
EXTT14=
PLAYORDER=
